<mxfile host="65bd71144e">
    <diagram id="SRTfGXlzXPBIA75euLGx" name="Page-1">
        <mxGraphModel dx="734" dy="293" grid="1" gridSize="10" guides="1" tooltips="1" connect="1" arrows="1" fold="1" page="1" pageScale="1" pageWidth="850" pageHeight="1100" math="0" shadow="0">
            <root>
                <mxCell id="0"/>
                <mxCell id="1" parent="0"/>
                <mxCell id="2" value="" style="whiteSpace=wrap;html=1;" vertex="1" parent="1">
                    <mxGeometry x="40" y="40" width="480" height="360" as="geometry"/>
                </mxCell>
                <mxCell id="3" value="" style="whiteSpace=wrap;html=1;" vertex="1" parent="1">
                    <mxGeometry x="260" y="40" width="260" height="360" as="geometry"/>
                </mxCell>
                <mxCell id="6" value="" style="whiteSpace=wrap;html=1;fillColor=#fa6800;fontColor=#000000;strokeColor=#C73500;" vertex="1" parent="1">
                    <mxGeometry x="280" y="150" width="60" height="60" as="geometry"/>
                </mxCell>
                <mxCell id="8" value="" style="whiteSpace=wrap;html=1;fillColor=#fa6800;fontColor=#000000;strokeColor=#C73500;" vertex="1" parent="1">
                    <mxGeometry x="360" y="150" width="60" height="60" as="geometry"/>
                </mxCell>
                <mxCell id="9" value="" style="whiteSpace=wrap;html=1;fillColor=#fa6800;fontColor=#000000;strokeColor=#C73500;" vertex="1" parent="1">
                    <mxGeometry x="440" y="150" width="60" height="60" as="geometry"/>
                </mxCell>
                <mxCell id="10" value="" style="whiteSpace=wrap;html=1;fillColor=#fa6800;fontColor=#000000;strokeColor=#C73500;" vertex="1" parent="1">
                    <mxGeometry x="280" y="60" width="60" height="60" as="geometry"/>
                </mxCell>
                <mxCell id="11" value="" style="whiteSpace=wrap;html=1;fillColor=#fa6800;fontColor=#000000;strokeColor=#C73500;" vertex="1" parent="1">
                    <mxGeometry x="360" y="60" width="60" height="60" as="geometry"/>
                </mxCell>
                <mxCell id="12" value="" style="whiteSpace=wrap;html=1;fillColor=#fa6800;fontColor=#000000;strokeColor=#C73500;" vertex="1" parent="1">
                    <mxGeometry x="440" y="60" width="60" height="60" as="geometry"/>
                </mxCell>
                <mxCell id="13" value="" style="whiteSpace=wrap;html=1;fillColor=#fa6800;fontColor=#000000;strokeColor=#C73500;" vertex="1" parent="1">
                    <mxGeometry x="280" y="230" width="60" height="60" as="geometry"/>
                </mxCell>
                <mxCell id="14" value="" style="whiteSpace=wrap;html=1;fillColor=#fa6800;fontColor=#000000;strokeColor=#C73500;" vertex="1" parent="1">
                    <mxGeometry x="280" y="310" width="60" height="60" as="geometry"/>
                </mxCell>
                <mxCell id="15" value="" style="whiteSpace=wrap;html=1;fillColor=#fa6800;fontColor=#000000;strokeColor=#C73500;" vertex="1" parent="1">
                    <mxGeometry x="360" y="230" width="60" height="60" as="geometry"/>
                </mxCell>
                <mxCell id="16" value="" style="whiteSpace=wrap;html=1;fillColor=#fa6800;fontColor=#000000;strokeColor=#C73500;" vertex="1" parent="1">
                    <mxGeometry x="360" y="310" width="60" height="60" as="geometry"/>
                </mxCell>
                <mxCell id="18" value="" style="whiteSpace=wrap;html=1;fillColor=#fa6800;fontColor=#000000;strokeColor=#C73500;" vertex="1" parent="1">
                    <mxGeometry x="440" y="230" width="60" height="60" as="geometry"/>
                </mxCell>
                <mxCell id="19" value="" style="whiteSpace=wrap;html=1;fillColor=#fa6800;fontColor=#000000;strokeColor=#C73500;" vertex="1" parent="1">
                    <mxGeometry x="440" y="310" width="60" height="60" as="geometry"/>
                </mxCell>
                <mxCell id="20" value="TESTIMONIAL HEADING" style="whiteSpace=wrap;html=1;" vertex="1" parent="1">
                    <mxGeometry x="50" y="80" width="200" height="30" as="geometry"/>
                </mxCell>
                <mxCell id="21" value="TESTIMONIAL" style="text;html=1;resizable=0;autosize=1;align=center;verticalAlign=middle;points=[];fillColor=none;strokeColor=none;rounded=0;" vertex="1" parent="1">
                    <mxGeometry x="50" y="50" width="100" height="20" as="geometry"/>
                </mxCell>
                <mxCell id="22" value="" style="ellipse;whiteSpace=wrap;html=1;aspect=fixed;fillColor=#fa6800;fontColor=#000000;strokeColor=#C73500;" vertex="1" parent="1">
                    <mxGeometry x="60" y="130" width="40" height="40" as="geometry"/>
                </mxCell>
                <mxCell id="24" value="" style="ellipse;whiteSpace=wrap;html=1;aspect=fixed;fillColor=#fa6800;fontColor=#000000;strokeColor=#C73500;" vertex="1" parent="1">
                    <mxGeometry x="190" y="130" width="40" height="40" as="geometry"/>
                </mxCell>
                <mxCell id="25" value="" style="whiteSpace=wrap;html=1;" vertex="1" parent="1">
                    <mxGeometry x="50" y="180" width="60" height="60" as="geometry"/>
                </mxCell>
                <mxCell id="26" value="" style="whiteSpace=wrap;html=1;" vertex="1" parent="1">
                    <mxGeometry x="180" y="180" width="60" height="60" as="geometry"/>
                </mxCell>
                <mxCell id="27" value="" style="ellipse;whiteSpace=wrap;html=1;aspect=fixed;fillColor=#fa6800;fontColor=#000000;strokeColor=#C73500;" vertex="1" parent="1">
                    <mxGeometry x="60" y="260" width="40" height="40" as="geometry"/>
                </mxCell>
                <mxCell id="28" value="" style="ellipse;whiteSpace=wrap;html=1;aspect=fixed;fillColor=#fa6800;fontColor=#000000;strokeColor=#C73500;" vertex="1" parent="1">
                    <mxGeometry x="190" y="260" width="40" height="40" as="geometry"/>
                </mxCell>
                <mxCell id="29" value="" style="whiteSpace=wrap;html=1;" vertex="1" parent="1">
                    <mxGeometry x="50" y="320" width="60" height="60" as="geometry"/>
                </mxCell>
                <mxCell id="31" value="" style="whiteSpace=wrap;html=1;" vertex="1" parent="1">
                    <mxGeometry x="180" y="320" width="60" height="60" as="geometry"/>
                </mxCell>
                <mxCell id="32" value="&lt;b&gt;GALLERY&lt;/b&gt;" style="text;html=1;resizable=0;autosize=1;align=center;verticalAlign=middle;points=[];fillColor=none;strokeColor=none;rounded=0;" vertex="1" parent="1">
                    <mxGeometry x="350" y="40" width="70" height="20" as="geometry"/>
                </mxCell>
            </root>
        </mxGraphModel>
    </diagram>
</mxfile>